<svg width="1004.6599999999999" height="240" xmlns="http://www.w3.org/2000/svg" data-name="Layer 1">
 <defs>
  <linearGradient y2="0.0691" x2="0.75371" y1="0.93537" x1="0.25367" id="linear-gradient">
   <stop stop-color="#0071fd" offset="0"/>
   <stop stop-color="#00e1fd" offset="1"/>
  </linearGradient>
 </defs>
 <title>SVG 5</title>
 <g>
  <title>Layer 1</title>
  <path id="svg_1" fill="#000000" d="m386.41,213.48c0,9.35 -6.93,16.7 -18,16.7c-11.34,0 -19.38,-8.56 -19.38,-19.06a18.81,18.81 0 0 1 19.27,-19.06a18.36,18.36 0 0 1 15.92,8.87l-4.22,2.47a13.16,13.16 0 0 0 -11.76,-6.62a14,14 0 0 0 -14.39,14.34c0,8 5.83,14.28 14.6,14.28c7.62,0 12.13,-4.2 13.08,-9.71l-13.53,0l0,-4.42l18.38,0l0.03,2.21z" class="cls-1"/>
  <path id="svg_2" fill="#000000" d="m391.86,191.16l4.57,0l0,38.34l-4.57,0l0,-38.34z" class="cls-1"/>
  <path id="svg_3" fill="#000000" d="m401.94,216.37a13.84,13.84 0 1 1 13.81,13.81a13.69,13.69 0 0 1 -13.81,-13.81zm23.1,0a9.27,9.27 0 1 0 -9.29,9.35a9.16,9.16 0 0 0 9.25,-9.35l0.04,0z" class="cls-1"/>
  <path id="svg_4" fill="#000000" d="m462.79,216.37a13.48,13.48 0 0 1 -13.28,13.81a11.35,11.35 0 0 1 -9.93,-5.2l0,4.52l-4.58,0l0,-36.76l4.57,0l0,15a11.35,11.35 0 0 1 9.93,-5.2a13.48,13.48 0 0 1 13.29,13.83zm-4.57,0a9.32,9.32 0 1 0 -9.29,9.4a9.17,9.17 0 0 0 9.29,-9.4z" class="cls-1"/>
  <path id="svg_5" fill="#000000" d="m494.55,203.24l0,26.26l-4.55,0l0,-4.5a11.36,11.36 0 0 1 -9.93,5.2a13.82,13.82 0 0 1 0,-27.62a11.36,11.36 0 0 1 9.93,5.2l0,-4.52l4.55,-0.02zm-4.55,13.13a9.33,9.33 0 1 0 -9.35,9.4a9.19,9.19 0 0 0 9.35,-9.4z" class="cls-1"/>
  <path id="svg_6" fill="#000000" d="m501.48,191.16l4.52,0l0,38.34l-4.56,0l0.04,-38.34z" class="cls-1"/>
  <path id="svg_7" fill="#000000" d="m512.24,195.42a3.07,3.07 0 1 1 6.14,0a3.07,3.07 0 0 1 -6.14,0zm0.79,7.82l4.56,0l0,26.26l-4.59,0l0.03,-26.26z" class="cls-1"/>
  <path id="svg_8" fill="#000000" d="m543.17,222.3c0,4.89 -4.2,7.88 -9.82,7.88c-5.26,0 -8.93,-2.52 -10.45,-6.14l3.94,-2.26c0.84,2.52 3.25,4.09 6.51,4.09c2.78,0 5.2,-1 5.2,-3.57c0,-5.62 -14.71,-2.41 -14.71,-11.92c0,-4.62 4,-7.82 9.3,-7.82c4.3,0 7.77,2.05 9.45,5.46l-3.83,2.15a5.8,5.8 0 0 0 -5.62,-3.36c-2.37,0 -4.68,1.16 -4.68,3.52c0,5.67 14.71,2.31 14.71,11.97z" class="cls-1"/>
  <path id="svg_9" fill="#000000" d="m574.14,203.24l0,26.26l-4.57,0l0,-4.5a11.34,11.34 0 0 1 -9.92,5.2a13.82,13.82 0 0 1 0,-27.62a11.34,11.34 0 0 1 9.92,5.2l0,-4.52l4.57,-0.02zm-4.57,13.13a9.32,9.32 0 1 0 -9.34,9.4a9.18,9.18 0 0 0 9.34,-9.4z" class="cls-1"/>
  <path id="svg_10" fill="#000000" d="m588.36,207.65l0,14.23c0,4 2.32,3.73 7,3.52l0,4.1c-7.88,1.05 -11.55,-1.05 -11.55,-7.62l0,-14.23l-5.2,0l0,-4.41l5.2,0l0,-6l4.56,-1.36l0,7.35l7,0l0,4.41l-7.01,0.01z" class="cls-1"/>
  <path id="svg_11" fill="#000000" d="m600,195.42a3.07,3.07 0 1 1 6.14,0a3.07,3.07 0 0 1 -6.14,0zm0.78,7.82l4.57,0l0,26.26l-4.57,0l0,-26.26z" class="cls-1"/>
  <path id="svg_12" fill="#000000" d="m610.83,216.37a13.84,13.84 0 1 1 13.81,13.81a13.7,13.7 0 0 1 -13.81,-13.81zm23.11,0a9.27,9.27 0 1 0 -9.3,9.35a9.16,9.16 0 0 0 9.3,-9.35z" class="cls-1"/>
  <path id="svg_13" fill="#000000" d="m667.17,213.38l0,16.12l-4.57,0l0,-15.86c0,-4.31 -2.47,-6.72 -6.51,-6.72c-4.2,0 -7.61,2.47 -7.61,8.66l0,13.92l-4.57,0l0,-26.26l4.57,0l0,3.76a9.32,9.32 0 0 1 8.5,-4.46c6.15,0.02 10.19,4.12 10.19,10.84z" class="cls-1"/>
  <path id="svg_14" fill="#000000" d="m676.93,236.85l-3.93,0l2.1,-12.76l5.25,0l-3.42,12.76z" class="cls-1"/>
  <path id="svg_15" fill="#000000" d="m698.35,221.15l4.2,-2.42c1.31,4.05 4.46,6.67 9.82,6.67c5.2,0 7.77,-2.36 7.77,-5.67c0,-3.78 -3.25,-5 -8.66,-6.72c-5.88,-1.89 -11.56,-3.73 -11.56,-10.56c0,-6.61 5.41,-10.39 11.56,-10.39a13.19,13.19 0 0 1 12.44,8l-4.09,2.36a8.56,8.56 0 0 0 -8.35,-5.67c-3.94,0 -6.67,2.1 -6.67,5.46s2.57,4.68 7.72,6.3c6.4,2.1 12.44,4 12.44,11.09c0,6.46 -5.2,10.55 -12.71,10.55c-6.98,0.03 -11.97,-3.49 -13.91,-9z" class="cls-1"/>
  <path id="svg_16" fill="#000000" d="m729.48,195.42a3.07,3.07 0 1 1 6.14,0a3.07,3.07 0 0 1 -6.14,0zm0.79,7.82l4.57,0l0,26.26l-4.57,0l0,-26.26z" class="cls-1"/>
  <path id="svg_17" fill="#000000" d="m780.05,213.17l0,16.33l-4.57,0l0,-16.18c0,-4.15 -2.31,-6.4 -5.77,-6.4c-3.68,0 -6.46,2.31 -6.46,8l0,14.6l-4.57,0l0,-16.2c0,-4.15 -2.16,-6.4 -5.57,-6.4s-6.72,2.31 -6.72,8l0,14.6l-4.57,0l0,-26.28l4.57,0l0,3.52a8.78,8.78 0 0 1 7.82,-4.2a8.27,8.27 0 0 1 7.72,4.46a9.3,9.3 0 0 1 8.25,-4.46c5.82,0 9.87,4.04 9.87,10.61z" class="cls-1"/>
  <path id="svg_18" fill="#000000" d="m814.17,216.37a13.49,13.49 0 0 1 -13.29,13.81a11.34,11.34 0 0 1 -9.88,-5.18l0,15l-4.57,0l0,-36.76l4.57,0l0,4.52a11.34,11.34 0 0 1 9.92,-5.2a13.49,13.49 0 0 1 13.25,13.81zm-4.57,0a9.32,9.32 0 1 0 -9.29,9.4a9.17,9.17 0 0 0 9.29,-9.4z" class="cls-1"/>
  <path id="svg_19" fill="#000000" d="m819.62,191.16l4.57,0l0,38.34l-4.57,0l0,-38.34z" class="cls-1"/>
  <path id="svg_20" fill="#000000" d="m830.38,195.42a3.08,3.08 0 1 1 6.15,0a3.08,3.08 0 0 1 -6.15,0zm0.79,7.82l4.57,0l0,26.26l-4.57,0l0,-26.26z" class="cls-1"/>
  <path id="svg_21" fill="#000000" d="m863.57,229.5l-4.57,0l0,-21.85l-9.71,0l0,21.85l-4.57,0l0,-21.85l-4.2,0l0,-4.41l4.2,0l0,-0.79c0,-7 4,-10.39 11.5,-10.39a26.3,26.3 0 0 1 5.41,0.68l0,4.15a40.11,40.11 0 0 0 -5.41,-0.42c-4.57,0 -6.93,1.42 -6.93,6l0,0.79l14.28,0l0,26.24z" class="cls-1"/>
  <path id="svg_22" fill="#000000" d="m883.26,225.87a8.59,8.59 0 0 0 7.56,-3.83l3.88,2.21a13.25,13.25 0 0 1 -11.55,5.93c-8.45,0 -14.07,-5.93 -14.07,-13.81s5.56,-13.81 13.76,-13.81c7.92,0 13.07,6.51 13.07,13.86a12.87,12.87 0 0 1 -0.16,2.05l-22,0c0.89,4.73 4.62,7.4 9.51,7.4zm-9.51,-11.39l17.54,0c-0.79,-5.2 -4.52,-7.62 -8.45,-7.62a8.72,8.72 0 0 0 -9.09,7.62z" class="cls-1"/>
  <path id="svg_23" fill="#000000" d="m927.41,192.74l0,36.76l-4.57,0l0,-4.5a11.34,11.34 0 0 1 -9.92,5.2a13.82,13.82 0 0 1 0,-27.62a11.34,11.34 0 0 1 9.92,5.2l0,-15l4.57,-0.04zm-4.57,23.63a9.32,9.32 0 1 0 -9.35,9.4a9.18,9.18 0 0 0 9.35,-9.4z" class="cls-1"/>
  <path id="svg_24" fill="#000000" d="m933.81,226.66a3.42,3.42 0 1 1 3.41,3.41a3.4,3.4 0 0 1 -3.41,-3.41z" class="cls-1"/>
  <path id="svg_25" fill="#000000" d="m431.72,58.76l-31.34,99.81l-21.16,0l-20.76,-67.27l-21,67.27l-21.12,0l-31.34,-99.81l22.75,0l19.37,68.87l21,-68.87l20.56,0l20.76,68.87l19.56,-68.87l22.72,0z" class="cls-1"/>
  <path id="svg_26" fill="#000000" d="m434.12,108.66c0,-29.74 23.56,-52.5 52.7,-52.5c29.35,0 52.7,22.76 52.7,52.5c0,29.55 -23.35,52.5 -52.7,52.5a52.23,52.23 0 0 1 -52.7,-52.5zm83.84,0c0,-18.16 -13.57,-31.54 -31.14,-31.54s-31.14,13.38 -31.14,31.54s13.58,31.54 31.14,31.54s31.18,-13.37 31.18,-31.54l-0.04,0z" class="cls-1"/>
  <path id="svg_27" fill="#000000" d="m607.4,57l0,23.32c-14.18,-1 -30.74,5.59 -30.74,27.94l0,50.31l-21.56,0l0,-99.81l21.56,0l0,16.77c5.98,-13.53 18.16,-18.53 30.74,-18.53z" class="cls-1"/>
  <path id="svg_28" fill="#000000" d="m619.38,12.85l21.56,0l0,145.72l-21.56,0l0,-145.72z" class="cls-1"/>
  <path id="svg_29" fill="#000000" d="m762.5,18.83l0,139.74l-21.56,0l0,-14.38c-7.58,10.59 -19.36,17 -34.93,17c-27.15,0 -49.7,-22.95 -49.7,-52.5c0,-29.74 22.55,-52.5 49.7,-52.5c15.57,0 27.35,6.39 34.93,16.77l0,-54.13l21.56,0zm-21.56,89.83c0,-18.56 -13.57,-31.94 -31.54,-31.94s-31.54,13.38 -31.54,31.94s13.58,31.94 31.54,31.94s31.54,-13.37 31.54,-31.94z" class="cls-1"/>
  <path id="svg_30" fill="#000000" d="m836,57l0,23.32c-14.17,-1 -30.74,5.59 -30.74,27.94l0,50.31l-21.59,0l0,-99.81l21.56,0l0,16.77c5.98,-13.53 18.16,-18.53 30.77,-18.53z" class="cls-1"/>
  <path id="svg_31" fill="#000000" d="m892.27,141.4c12,0 21,-5.39 25.74,-12.38l17.77,10.38c-9.18,13.58 -24.15,21.76 -43.72,21.76c-32.93,0 -54.29,-22.56 -54.29,-52.5c0,-29.54 21.36,-52.5 52.7,-52.5c29.74,0 50.1,24 50.1,52.7a65.31,65.31 0 0 1 -0.8,9l-79.44,0c3.39,15.56 15.96,23.54 31.94,23.54zm26.54,-41.12c-3,-17.17 -15.57,-24.55 -28.54,-24.55c-16.17,0 -27.15,9.58 -30.14,24.55l58.68,0z" class="cls-1"/>
  <path id="svg_32" fill="#000000" d="m981.1,56.76l0,2l23.56,0l0,20.76l-23.56,0l0,79.05l-21.56,0l0,-79l-15.17,0l0,-20.81l15.17,0l0,-2c0,-26.95 15.17,-42.51 45.12,-40.52l0,20.76c-15.17,-1.4 -23.56,4.39 -23.56,19.76z" class="cls-1"/>
  <path id="svg_33" fill="url(#linear-gradient)" d="m233.5,80.93l-61.5,106.58l-65,-112.51a15,15 0 1 1 26,-15l39,67.51l39.95,-69.2a15,15 0 0 0 -1.65,-17.31a119.94,119.94 0 0 0 -180.6,0a15,15 0 0 0 -1.61,17.31l40,69.2l12.91,-22.51a15,15 0 1 1 26,15l-39,67.49l-61.5,-106.49a120,120 0 1 0 227,0l0,-0.07z" class="cls-2"/>
 </g>
</svg>